<?xml version="1.0" encoding="utf-8"?>
<!-- Generator: Adobe Illustrator 16.0.0, SVG Export Plug-In . SVG Version: 6.00 Build 0)  -->
<!DOCTYPE svg PUBLIC "-//W3C//DTD SVG 1.1//EN" "http://www.w3.org/Graphics/SVG/1.1/DTD/svg11.dtd">
<svg version="1.1" id="Ebene_1" xmlns="http://www.w3.org/2000/svg" xmlns:xlink="http://www.w3.org/1999/xlink" x="0px" y="0px"
	 width="297.641px" height="99.21px" viewBox="0 0 297.641 99.21" enable-background="new 0 0 297.641 99.21" xml:space="preserve">
<path d="M174.132,30.788c-0.786-0.507-1.369-0.684-2.054-0.684c-1.217,0-1.875,0.761-1.875,2.41v0.834h4.967v1.928h-4.967v10.849
	h-2.131V35.276h-3.601v-1.928h3.601v-0.785c0-3.093,1.495-4.386,3.929-4.386c1.167,0,1.952,0.305,2.662,0.735L174.132,30.788z"/>
<path d="M182.272,44.401c2.61,0,4.105-2.206,4.105-4.665c0-2.458-1.495-4.664-4.105-4.664s-4.106,2.206-4.106,4.664
	C178.166,42.195,179.662,44.401,182.272,44.401 M182.272,33.145c3.901,0,6.286,3.068,6.286,6.592s-2.385,6.591-6.286,6.591
	c-3.903,0-6.287-3.067-6.287-6.591C175.985,36.212,178.369,33.145,182.272,33.145"/>
<path d="M200.062,37.404c-0.178-1.47-0.938-2.331-2.458-2.331c-2.23,0-4.334,2.103-4.334,6.439v4.612h-2.13V33.348h2.13v2.358
	c0.988-1.547,2.584-2.562,4.714-2.562c2.536,0,4.056,1.522,4.209,4.26H200.062z"/>
<polygon fill="#D57A75" points="66.909,27.572 66.909,28.268 66.909,72.337 70.595,72.337 71.625,72.337 72.504,72.337 
	72.504,27.572 "/>
<g>
	<path fill="#CE5A4E" d="M89.102,76.535c0.384,0,0.889-0.348,0.889-0.729v-52.43c0-0.383-0.505-0.698-0.889-0.698H71.625
		c-0.384,0-0.519,0.157-0.519,0.349v1.048v3.496c0,0.384,0.135,0.702,0.519,0.702h11.884c0.385,0,0.888,0.311,0.888,0.696v41.247
		c0,0.383-0.503,0.725-0.888,0.725H71.625c-0.384,0-0.519,0.131-0.519,0.324v1.047v3.496c0,0.383,0.135,0.73,0.519,0.73h17.478
		V76.535z"/>
</g>
<polygon fill="#8BBD97" points="96.986,27.572 96.986,28.268 96.986,72.337 101.684,72.337 102.582,72.337 102.582,27.572 "/>
<g>
	<path fill="#4EA15A" d="M101.882,76.503v-5.592c7.694,0,13.063-9.565,13.063-21.322c0-11.757-5.369-21.322-13.063-21.322v-5.593
		c10.492,0,18.656,12.074,18.656,26.915C120.538,64.43,112.374,76.503,101.882,76.503"/>
	<path fill="#33A1DF" d="M43.827,59.307v7.713V69.5c0,4.185,2.678,7.035,6.909,7.035h1.189h3.426h4.04
		c0.192,0,0.523-0.348,0.523-0.729V71.61c0-0.383-0.489-0.672-0.873-0.672h-4.017h-2.05h-1.271c-1.81,0-2.282-0.771-2.282-2.838
		v-1.229v-6.729v-4.104c0-4.218-1.715-5.771-3.803-6.536c2.088-0.763,3.803-2.315,3.803-6.53v-2.914v-7.394V30.91
		c0-2.033,0.405-2.64,2.282-2.64h1.58h2.004h4.103c0.192,0,0.523-0.318,0.523-0.702v-4.195c0-0.383-0.489-0.698-0.873-0.698h-3.36
		H52.51h-1.773c-4.231,0-6.909,2.74-6.909,6.834v2.196v9.146c0,0-0.139,2.1-0.24,2.814c-0.265,1.891-2.582,3.511-4.017,3.491h-2.199
		c-0.385,0-0.539,0.3-0.539,0.685v4.196c0,0.383,0.154,0.715,0.539,0.715h2.008c1.832-0.025,4.146,1.518,4.321,3.819
		C43.753,57.24,43.827,59.307,43.827,59.307"/>
	<path fill="#BD3C38" d="M71.625,22.676h-1.981H67.43c-0.385,0-0.521,0.315-0.521,0.699v1.291v2.903v0.703h0.521h4.194h0.88v-0.703
		v-4.194v-0.699H71.625z"/>
	<path fill="#BD3C38" d="M66.909,71.611v1.98v2.213c0,0.385,0.137,0.73,0.521,0.73h1.292h2.902h0.879v-0.73v-4.193v-0.672h-0.879
		H67.43h-0.521V71.611z"/>
	<path fill="#27954E" d="M101.684,22.676h-1.981H97.49c-0.384,0-0.504,0.315-0.504,0.699v1.291v2.903v0.703h0.504h4.194h0.897
		v-0.703v-4.194v-0.699H101.684z"/>
	<path fill="#27954E" d="M96.986,71.611v1.98v2.213c0,0.385,0.12,0.73,0.504,0.73h1.291h2.903h0.897v-0.73v-4.193v-0.672h-0.897
		H97.49h-0.504V71.611z"/>
	<path fill="#7BBBB7" d="M131.959,59.307v7.713V69.5c0,4.185,2.627,7.035,6.859,7.035h1.189h3.426h4.04
		c0.192,0,0.572-0.348,0.572-0.729V71.61c0-0.383-0.538-0.672-0.922-0.672h-4.018h-2.05h-1.269c-1.81,0-2.232-0.771-2.232-2.838
		v-1.229v-6.729v-4.104c0-1.357-0.398-2.586-0.708-3.287h-9.388c2.579,0.701,3.682,1.623,4.207,3.869
		C131.929,57.74,131.959,59.307,131.959,59.307"/>
	<path fill="#7BBBB7" d="M131.562,43.665c-0.542,1.832-1.751,2.793-3.91,3.493h8.807c0.547-1.399,1.097-2.333,1.097-4.184v-2.913
		v-7.394v-1.756c0-2.032,0.354-2.639,2.232-2.639h1.579h2.003h4.104c0.192,0,0.572-0.318,0.572-0.702v-4.195
		c0-0.384-0.538-0.699-0.922-0.699h-3.359h-3.172h-1.774c-4.232,0-6.859,2.741-6.859,6.835v2.196v9.146
		C131.959,40.853,131.833,42.751,131.562,43.665"/>
	<path fill="#9AC9C6" d="M132.924,49.999c1.416,0.52,2.97,1.355,3.924,2.752h10.275c0.385,0,0.923-0.332,0.923-0.715v-4.194
		c0-0.386-0.538-0.687-0.923-0.687h-10.664C135.759,48.556,134.096,49.571,132.924,49.999"/>
	<path fill="#42A5A5" d="M125.453,47.158c-0.385,0-0.489,0.301-0.489,0.685v4.196c0,0.385,0.104,0.717,0.489,0.717h2.007h9.388
		c-0.631-1.4-2.196-2.358-3.314-2.793c1.172-0.43,2.226-1.404,2.926-2.803h-8.808L125.453,47.158L125.453,47.158z"/>
</g>
<g>
	<rect x="161.788" y="49.179" fill="#CE5A4E" width="101.679" height="30.928"/>
	<g>
		<path fill="#FFFFFF" d="M257.174,64.625c0-1.758-0.889-2.918-2.793-2.918c-1.305,0-2.446,0.778-3.1,1.83v-1.686h-1.523v9.137
			h1.523v-3.68c0-2.665,1.251-4.225,2.684-4.225c1.089,0,1.687,0.599,1.687,1.867v6.036h1.522V64.625z M246.84,64.625
			c0-1.758-0.889-2.918-2.793-2.918c-1.306,0-2.446,0.778-3.1,1.83v-1.686h-1.523v9.137h1.523v-3.68
			c0-2.665,1.251-4.225,2.684-4.225c1.088,0,1.687,0.599,1.687,1.867v6.036h1.522V64.625z M229.725,66.419
			c0-1.758,1.067-3.336,2.937-3.336c1.867,0,2.938,1.578,2.938,3.336s-1.069,3.336-2.938,3.336
			C230.793,69.755,229.725,68.178,229.725,66.419 M228.165,66.419c0,2.521,1.704,4.713,4.496,4.713s4.496-2.191,4.496-4.713
			c0-2.521-1.704-4.713-4.496-4.713S228.165,63.899,228.165,66.419 M226.842,64.751c-0.108-1.959-1.196-3.045-3.011-3.045
			c-1.521,0-2.665,0.726-3.372,1.83v-1.686h-1.522v9.137h1.522v-3.299c0-3.102,1.506-4.605,3.101-4.605
			c1.088,0,1.633,0.617,1.76,1.668H226.842z M215.129,66.419c0,1.959-1.032,3.336-2.772,3.336c-1.741,0-2.774-1.377-2.774-3.336
			s1.033-3.336,2.774-3.336C214.096,63.083,215.129,64.46,215.129,66.419 M216.688,66.419c0-2.793-1.504-4.713-4.188-4.713
			c-1.27,0-2.285,0.615-2.792,1.306v-4.859h-1.521V70.99h1.521v-1.215c0.507,0.707,1.541,1.357,2.792,1.357
			C215.184,71.132,216.688,69.212,216.688,66.419 M199.319,59.675v7.869c0,2.303,1.342,3.588,3.444,3.588
			c1.866,0,3.174-1.104,3.5-3.315l-1.38-0.271c-0.234,1.541-1.032,2.211-2.12,2.211c-1.25,0-1.923-0.707-1.923-2.211v-9.248h-4.043
			v1.379h2.521V59.675z M191.686,59.421c0,0.688,0.562,1.232,1.252,1.232c0.707,0,1.25-0.544,1.25-1.232
			c0-0.707-0.543-1.27-1.25-1.27C192.248,58.152,191.686,58.714,191.686,59.421 M189.492,63.192h2.792v6.455h-3.153v1.341h8.05
			v-1.341h-3.373v-7.796h-4.314L189.492,63.192L189.492,63.192z M182.93,63.083c1.485,0,2.446,0.834,2.72,2.285h-5.421
			C180.536,63.99,181.461,63.083,182.93,63.083 M187.262,66.111c0-2.393-1.505-4.404-4.332-4.404c-2.738,0-4.369,2.14-4.369,4.713
			c0,2.666,1.703,4.713,4.369,4.713c1.702,0,3.153-0.633,4.15-2.555l-1.215-0.636c-0.616,1.144-1.56,1.813-2.937,1.813
			c-1.613,0-2.721-1.196-2.812-3.01h7.144L187.262,66.111L187.262,66.111z M175.26,58.296v5.187h-5.584v-5.187h-1.596v12.691h1.596
			v-5.982h5.584v5.982h1.597V58.296H175.26z"/>
	</g>
</g>
</svg>
